<?xml version="1.0" encoding="UTF-8"?>
<svg id="Layer_2" data-name="Layer 2" xmlns="http://www.w3.org/2000/svg" viewBox="0 0 1382 1382.81">
  <defs>
    <style>
      .cls-1 {
        stroke-width: 4px;
      }

      .cls-1, .cls-2 {
        fill: #fff;
        stroke: #fff;
        stroke-miterlimit: 10;
      }

      .cls-2 {
        font-family: AmaticSC-Regular, 'Amatic SC';
        font-size: 464.37px;
      }
    </style>
  </defs>
  <g id="Layer_3" data-name="Layer 3">
    <line class="cls-1" x1="287.28" y1="3.5" x2="287.28" y2="817.08"/>
    <line class="cls-1" x1="430.44" y1="817.08" x2="430.44" y2="3.5"/>
    <line class="cls-1" x1="287.28" y1="83.81" x2="287.28" y2="83.81"/>
    <line class="cls-1" x1="287.28" y1="83.81" x2="1093.87" y2="83.81"/>
    <line class="cls-1" x1="287.28" y1="192.05" x2="430.44" y2="192.05"/>
    <line class="cls-1" x1="287.28" y1="300.3" x2="430.44" y2="300.3"/>
    <line class="cls-1" x1="287.28" y1="412.03" x2="423.45" y2="408.54"/>
    <line class="cls-1" x1="287.28" y1="516.79" x2="430.44" y2="516.79"/>
    <line class="cls-1" x1="287.28" y1="628.52" x2="430.44" y2="628.52"/>
    <line class="cls-1" x1="287.28" y1="733.28" x2="1097.36" y2="733.28"/>
    <line class="cls-1" x1="943.72" y1="0" x2="947.22" y2="817.08"/>
    <line class="cls-1" x1="1086.89" y1="3.5" x2="1086.89" y2="817.08"/>
    <line class="cls-1" x1="940.23" y1="192.05" x2="1086.89" y2="192.05"/>
    <line class="cls-1" x1="950.71" y1="300.3" x2="1086.89" y2="300.3"/>
    <line class="cls-1" x1="943.72" y1="408.54" x2="1086.89" y2="408.54"/>
    <line class="cls-1" x1="947.22" y1="516.79" x2="1086.89" y2="516.79"/>
    <line class="cls-1" x1="950.71" y1="628.52" x2="1086.89" y2="628.52"/>
    <path class="cls-1" d="M822.15,415.86l-244.6-141.22c-.91-.52-2.04,.13-2.04,1.18v282.44c0,1.05,1.13,1.7,2.04,1.18l244.6-141.22c.91-.52,.91-1.83,0-2.36Z"/>
  </g>
  <text class="cls-2" transform="translate(.5 1273.65)"><tspan x="0" y="0">RentAfilm</tspan></text>
</svg>