<?xml version="1.0" encoding="UTF-8"?>
<svg id="Layer_2" data-name="Layer 2" xmlns="http://www.w3.org/2000/svg" viewBox="0 0 1374.5 1396.74">
  <defs>
    <style>
      .cls-1, .cls-2 {
        stroke: #000;
        stroke-miterlimit: 10;
        stroke-width: 18px;
      }

      .cls-3 {
        font-family: AmaticSC-Bold, 'Amatic SC';
        font-size: 464.37px;
        font-weight: 700;
      }

      .cls-2 {
        fill: none;
      }
    </style>
  </defs>
  <g id="Layer_3" data-name="Layer 3">
    <line class="cls-1" x1="286.78" y1="3.53" x2="286.78" y2="817.11"/>
    <line class="cls-2" x1="429.94" y1="817.11" x2="429.94" y2="3.53"/>
    <line class="cls-2" x1="286.78" y1="83.84" x2="286.78" y2="83.84"/>
    <line class="cls-2" x1="286.78" y1="83.84" x2="1086" y2="84.19"/>
    <line class="cls-2" x1="286.78" y1="192.08" x2="429.94" y2="192.08"/>
    <line class="cls-2" x1="286.78" y1="300.33" x2="429.94" y2="300.33"/>
    <line class="cls-2" x1="286.78" y1="412.06" x2="430" y2="413.19"/>
    <line class="cls-2" x1="286.78" y1="516.82" x2="429.94" y2="516.82"/>
    <line class="cls-2" x1="286.78" y1="628.55" x2="429.94" y2="628.55"/>
    <line class="cls-2" x1="286.78" y1="733.31" x2="1086" y2="733.19"/>
    <line class="cls-2" x1="943.22" y1=".04" x2="946.72" y2="817.11"/>
    <line class="cls-2" x1="1086.39" y1="3.53" x2="1086.39" y2="817.11"/>
    <line class="cls-2" x1="943" y1="192.2" x2="1086.39" y2="192.09"/>
    <line class="cls-2" x1="945" y1="300.19" x2="1086.39" y2="300.33"/>
    <line class="cls-2" x1="943.22" y1="408.57" x2="1086.39" y2="408.57"/>
    <line class="cls-2" x1="946.72" y1="516.82" x2="1086.39" y2="516.82"/>
    <line class="cls-2" x1="947" y1="628.2" x2="1086.39" y2="628.56"/>
    <path class="cls-2" d="M821.65,415.89l-244.6-141.22c-.91-.52-2.04,.13-2.04,1.18v282.44c0,1.05,1.13,1.7,2.04,1.18l244.6-141.22c.91-.52,.91-1.83,0-2.36Z"/>
  </g>
  <text class="cls-3" transform="translate(0 1273.68)"><tspan x="0" y="0">RentAfilm</tspan></text>
</svg>