<?xml version="1.0" encoding="UTF-8"?>
<svg id="Layer_1" data-name="Layer 1" xmlns="http://www.w3.org/2000/svg" viewBox="0 0 573.8 512">
  <defs>
    <style>
      .cls-1 {
        fill: #fcfcfc;
      }
    </style>
  </defs>
  <path class="cls-1" d="M24,0C10.7,0,0,10.7,0,24s10.7,24,24,24h52.1l60.3,316.5c2.2,11.3,12.1,19.5,23.6,19.5H488c13.3,0,24-10.7,24-24s-10.7-24-24-24H179.9l-9.1-48H487.8c14.3,0,26.9-9.5,30.8-23.3l54-192c5.7-20.4-9.6-40.7-30.8-40.7H122l-2.4-12.5C117.4,8.2,107.5,0,96,0H24ZM176,512c26.5,0,48-21.5,48-48s-21.5-48-48-48-48,21.5-48,48,21.5,48,48,48Zm336-48c0-26.5-21.5-48-48-48s-48,21.5-48,48,21.5,48,48,48,48-21.5,48-48Z"/>
</svg>